<?xml version="1.0" encoding="UTF-8" standalone="no"?>
<svg width="410px" height="410px" viewBox="0 0 410 410" version="1.1" xmlns="http://www.w3.org/2000/svg" xmlns:xlink="http://www.w3.org/1999/xlink">
    <!-- Generator: Sketch 45.2 (43514) - http://www.bohemiancoding.com/sketch -->
    <title>dt-logo</title>
    <desc>Created with Sketch.</desc>
    <defs></defs>
    <g id="Page-1" stroke="none" stroke-width="1" fill="none" fill-rule="evenodd">
        <g id="dt-logo" fill="#FFFFFF" fill-rule="nonzero">
            <path d="M403.1,409.1 L6,409.1 C2.7,409.1 0,406.4 0,403.1 L0,6 C0,2.7 2.7,0 6,0 L403.1,0 C406.4,0 409.1,2.7 409.1,6 L409.1,403.1 C409.1,406.4 406.4,409.1 403.1,409.1 Z M99.1,201 C114.122145,201 126.3,188.822145 126.3,173.8 C126.3,158.777855 114.122145,146.6 99.1,146.6 C84.0778548,146.6 71.9,158.777855 71.9,173.8 C71.9,188.822145 84.0778548,201 99.1,201 Z M164.9,316 L164.9,316.1 L240.1,316.1 C320.3,316.1 335.1,276.3 335.1,200.1 C335.1,125.8 318,92.6 240.1,92.6 L164.9,92.6 L164.9,316 Z M240.1,132 C284.1,132 288.4,151.1 288.4,200 C288.4,249.7 284.1,276.6 240.1,276.6 L210.2,276.6 L210.2,132 L240.1,132 Z"></path>
        </g>
    </g>
</svg>